<svg width="24" height="24" viewBox="0 0 24 24" fill="none" xmlns="http://www.w3.org/2000/svg">
<path d="M12 5.365V3M12 5.365C13.3851 5.4182 14.6952 6.00811 15.6531 7.00992C16.6111 8.01174 17.1418 9.34691 17.133 10.733V12.533C17.133 14.919 19 15.515 19 16.708C19 17.301 19 18 18.462 18H5.538C5 18 5 17.301 5 16.708C5 15.515 6.867 14.919 6.867 12.533V10.733C6.85819 9.34691 7.38889 8.01174 8.34685 7.00992C9.30481 6.00811 10.6149 5.4182 12 5.365ZM8.73315 18C8.82715 18.8519 9.03902 19.5403 9.67746 20.1121C10.3159 20.684 11.1429 21.0002 12 21.0002C12.8571 21.0002 13.6841 20.684 14.3225 20.1121C14.961 19.5403 15.5591 18.8519 15.6531 18H8.73315Z" stroke="#383838" stroke-width="2" stroke-linecap="round" stroke-linejoin="round"/>
</svg>
