<svg width="30" height="30" viewBox="0 0 30 30" fill="none" xmlns="http://www.w3.org/2000/svg">
<path d="M18.75 21.25H25L23.2437 19.4938C23.0079 19.2578 22.8208 18.9778 22.6932 18.6696C22.5656 18.3614 22.4999 18.0311 22.5 17.6975V13.75C22.5002 12.1987 22.0195 10.6854 21.124 9.41861C20.2286 8.15179 18.9625 7.1937 17.5 6.67625V6.25C17.5 5.58696 17.2366 4.95107 16.7678 4.48223C16.2989 4.01339 15.663 3.75 15 3.75C14.337 3.75 13.7011 4.01339 13.2322 4.48223C12.7634 4.95107 12.5 5.58696 12.5 6.25V6.67625C9.5875 7.70625 7.5 10.485 7.5 13.75V17.6988C7.5 18.3713 7.2325 19.0175 6.75625 19.4938L5 21.25H11.25M18.75 21.25H11.25M18.75 21.25V22.5C18.75 23.4946 18.3549 24.4484 17.6517 25.1517C16.9484 25.8549 15.9946 26.25 15 26.25C14.0054 26.25 13.0516 25.8549 12.3483 25.1517C11.6451 24.4484 11.25 23.4946 11.25 22.5V21.25" stroke="#727272" stroke-width="2" stroke-linecap="round" stroke-linejoin="round"/>
</svg>
