<svg width="20" height="20" viewBox="0 0 20 20" fill="none" xmlns="http://www.w3.org/2000/svg">
<path d="M16.85 7.39995L12.6 3.14995L14.025 1.72495C14.4083 1.34162 14.8791 1.14995 15.4375 1.14995C15.9958 1.14995 16.4666 1.34162 16.85 1.72495L18.275 3.14995C18.6583 3.53328 18.85 4.00412 18.85 4.56245C18.85 5.12078 18.6583 5.59162 18.275 5.97495L16.85 7.39995ZM0.999976 19V14.75L5.49998 10.25L0.224976 4.92495L4.94998 0.199951L10.25 5.52495L11.2 4.57495L15.45 8.79995L14.5 9.74995L19.775 15.075L15.075 19.775L9.74998 14.475L5.24998 19H0.999976ZM6.92498 8.82495L8.82498 6.92495L7.62498 5.72495L6.42498 6.89995L5.02498 5.49995L6.19998 4.29995L4.92498 3.04995L3.04998 4.94995L6.92498 8.82495ZM15.05 16.95L16.95 15.05L15.675 13.8L14.5 14.975L13.075 13.575L14.275 12.375L13.05 11.175L11.15 13.075L15.05 16.95Z" fill="#62C6FF"/>
</svg>
