<svg width="24" height="24" viewBox="0 0 24 24" fill="none" xmlns="http://www.w3.org/2000/svg">
<path d="M18.1216 17.6451C17.4621 18.6942 16.5475 19.5532 15.4659 20.1397C14.3843 20.7261 13.1721 21.0201 11.9461 20.9934C10.8016 21.0446 9.6632 20.7971 8.63983 20.2745C7.61646 19.752 6.74228 18.9718 6.10086 18.0086C3.42769 13.4393 6.38723 9.16262 6.98692 8.3415C7.51886 7.77327 7.89262 7.07197 8.07003 6.30921C8.24744 5.54646 8.22214 4.74959 7.99672 4C9.28092 4.96489 14.4277 7.25815 13.5217 14.631C15.0184 13.495 16.2218 11.5845 16.3684 8.41541C17.7983 9.47648 20.3528 13.8767 18.1216 17.6451Z" stroke="#383838" stroke-width="2" stroke-linecap="round" stroke-linejoin="round"/>
</svg>
