<svg width="18" height="18" viewBox="0 0 18 18" fill="none" xmlns="http://www.w3.org/2000/svg">
<path d="M3.84999 14.15L0.649988 12.4L1.69999 11.35L4.19999 11.7L8.09999 7.80005L0.299988 3.55005L1.69999 2.15005L11.25 4.60005L15.175 0.725049C15.4583 0.441716 15.8125 0.300049 16.2375 0.300049C16.6625 0.300049 17.0167 0.441716 17.3 0.725049C17.5833 1.00838 17.725 1.36255 17.725 1.78755C17.725 2.21255 17.5833 2.56672 17.3 2.85005L13.4 6.75005L15.85 16.3L14.45 17.7L10.2 9.90005L6.29999 13.8L6.64999 16.3L5.59999 17.35L3.84999 14.15Z" fill="#B792E6"/>
</svg>
