<svg width="24" height="24" viewBox="0 0 24 24" fill="none" xmlns="http://www.w3.org/2000/svg">
<path d="M10.0514 8.10199L6.27319 8.42379L4.27878 10.4177C4.15411 10.5412 4.06644 10.697 4.0257 10.8677C3.98497 11.0384 3.99278 11.2171 4.04825 11.3835C4.10373 11.55 4.20466 11.6976 4.33964 11.8097C4.47462 11.9218 4.63825 11.9939 4.81205 12.0178L7.51037 12.3343M15.8995 13.9513L15.5778 17.7303L13.5843 19.7251C13.4607 19.8485 13.3052 19.935 13.1352 19.975C12.9652 20.015 12.7874 20.0069 12.6218 19.9515C12.4562 19.8961 12.3092 19.7957 12.1974 19.6615C12.0857 19.5273 12.0135 19.3646 11.9889 19.1917L11.5898 16.54M19.755 5.36579C19.7079 5.08582 19.5748 4.82748 19.3741 4.62673C19.1734 4.42597 18.9151 4.29279 18.6352 4.24571C17.0194 3.96747 13.7291 3.62344 12.2546 5.0991C10.5838 6.77123 7.04376 13.1139 5.94435 15.1221C5.84707 15.2998 5.81033 15.5044 5.83968 15.7049C5.86902 15.9054 5.96286 16.0909 6.10699 16.2333L6.93533 17.068L7.76811 17.9001C7.91048 18.0442 8.09592 18.1381 8.29637 18.1674C8.49682 18.1968 8.70138 18.16 8.87908 18.0627C10.8868 16.9613 17.2282 13.4206 18.9 11.7512C20.3754 10.2728 20.0332 6.98191 19.755 5.36579ZM16.7936 9.08784C16.7936 10.1262 15.952 10.968 14.9139 10.968C13.8757 10.968 13.0341 10.1262 13.0341 9.08784C13.0341 8.04947 13.8757 7.2077 14.9139 7.2077C15.952 7.2077 16.7936 8.04947 16.7936 9.08784Z" stroke="#383838" stroke-width="2" stroke-linecap="round" stroke-linejoin="round"/>
</svg>
