<svg width="24" height="24" viewBox="0 0 24 24" fill="none" xmlns="http://www.w3.org/2000/svg">
<path d="M7 11C7.88903 10.9138 8.41621 10.4565 9.15562 9.94286C10.7092 8.45498 12.0428 6.74245 13.1143 4.85943C13.2489 4.59961 13.4499 4.38232 13.6958 4.2309C13.9417 4.07948 14.2232 3.99966 14.51 4C14.7348 3.99988 14.9571 4.04886 15.1621 4.14369C15.3671 4.23851 15.5501 4.37701 15.6989 4.54997C15.8476 4.72293 15.9588 4.9264 16.0251 5.14685C16.0913 5.36731 16.111 5.59969 16.0829 5.82857L14.6945 9.94286M7 11L4 11V17.5C4 18.3284 4.67157 19 5.5 19V19C6.32843 19 7 18.3284 7 17.5V11ZM13.5 10H18.415C18.7014 10.0001 18.7868 10.0139 19.0409 10.1496C19.2949 10.2853 19.5133 10.4818 19.6776 10.7225C19.8419 10.9631 19.9472 11.2409 19.9847 11.5322C20.0221 11.8235 19.9906 12.1197 19.8928 12.3959L17.7949 18.7959C17.5383 19.5191 17.3681 20 16.1204 20C13.8175 20 11.3293 19.0574 9.44971 18.5253" stroke="#383838" stroke-width="2" stroke-linecap="round" stroke-linejoin="round"/>
</svg>
